<?xml version="1.0" encoding="UTF-8" standalone="no"?>
<!DOCTYPE svg PUBLIC "-//W3C//DTD SVG 1.1//EN" "http://www.w3.org/Graphics/SVG/1.1/DTD/svg11.dtd">
<svg width="100%" height="100%" viewBox="0 0 1524 1599" version="1.1" xmlns="http://www.w3.org/2000/svg" xmlns:xlink="http://www.w3.org/1999/xlink" xml:space="preserve" xmlns:serif="http://www.serif.com/" style="fill-rule:evenodd;clip-rule:evenodd;stroke-linejoin:round;stroke-miterlimit:2;">
    <g id="Artboard1" transform="matrix(1.01415,0,0,1,-4.471,-1.54908)">
        <rect x="4.409" y="1.549" width="1502.67" height="1598.47" style="fill:none;"/>
        <g id="Logo" transform="matrix(6.87134,0,0,6.89713,-944.048,-2186.83)">
            <g transform="matrix(9.07022,0,0,8.4647,3865.55,-6248.54)">
                <g>
                    <g transform="matrix(1,0,0,1,-411.459,788.884)">
                        <text x="0px" y="0px" style="font-family:'Raleway-Black', 'Raleway', sans-serif;font-weight:900;font-size:12px;fill:white;">B</text>
                    </g>
                    <g transform="matrix(1,0,0,1,-403.383,788.884)">
                        <text x="0px" y="0px" style="font-family:'Raleway-Black', 'Raleway', sans-serif;font-weight:900;font-size:12px;fill:white;">AD</text>
                    </g>
                </g>
                <g>
                    <g transform="matrix(1,0,0,1,-411.459,799.473)">
                        <text x="0px" y="0px" style="font-family:'Raleway-Black', 'Raleway', sans-serif;font-weight:900;font-size:12px;fill:white;">F</text>
                    </g>
                    <g transform="matrix(1,0,0,1,-404.811,799.473)">
                        <text x="0px" y="0px" style="font-family:'Raleway-Black', 'Raleway', sans-serif;font-weight:900;font-size:12px;fill:white;">O<tspan x="8.796px " y="0px ">X</tspan></text>
                    </g>
                </g>
            </g>
            <g transform="matrix(0.215883,0,0,1.63805,74.7035,-1571.4)">
                <path d="M1268.32,1292.35C1268.32,1291.66 1264.1,1291.11 1258.91,1291.11L308.498,1291.11C303.305,1291.11 299.088,1291.66 299.088,1292.35C299.088,1293.04 303.305,1293.6 308.498,1293.6L1258.91,1293.6C1264.1,1293.6 1268.32,1293.04 1268.32,1292.35Z" style="fill:url(#_Linear1);"/>
            </g>
            <g transform="matrix(-0.0868738,1.06868e-17,-1.99706e-16,-1.63805,374.495,2443.24)">
                <path d="M1268.32,1292.35C1268.32,1291.66 1257.84,1291.11 1244.93,1291.11L322.471,1291.11C309.566,1291.11 299.088,1291.66 299.088,1292.35C299.088,1293.04 309.566,1293.6 322.471,1293.6L1244.93,1293.6C1257.84,1293.6 1268.32,1293.04 1268.32,1292.35Z" style="fill:url(#_Linear2);"/>
            </g>
            <g transform="matrix(0.388562,0,0,0.362622,84.8041,220.651)">
                <g transform="matrix(1,0,0,1,138.423,316.078)">
                    <text x="0px" y="0px" style="font-family:'Khula-ExtraBold', 'Khula';font-weight:800;font-size:88.246px;fill:white;">we ar</text>
                </g>
                <g transform="matrix(1,0,0,1,376.102,316.078)">
                    <text x="0px" y="0px" style="font-family:'Khula-ExtraBold', 'Khula';font-weight:800;font-size:88.246px;fill:white;">e</text>
                </g>
            </g>
        </g>
    </g>
    <defs>
        <linearGradient id="_Linear1" x1="0" y1="0" x2="1" y2="0" gradientUnits="userSpaceOnUse" gradientTransform="matrix(969.228,0,0,969.228,299.088,1292.35)"><stop offset="0" style="stop-color:rgb(235,51,73);stop-opacity:1"/><stop offset="0.5" style="stop-color:rgb(235,51,73);stop-opacity:1"/><stop offset="1" style="stop-color:rgb(242,95,68);stop-opacity:1"/></linearGradient>
        <linearGradient id="_Linear2" x1="0" y1="0" x2="1" y2="0" gradientUnits="userSpaceOnUse" gradientTransform="matrix(969.228,0,0,969.228,299.088,1292.35)"><stop offset="0" style="stop-color:rgb(235,51,73);stop-opacity:1"/><stop offset="0.5" style="stop-color:rgb(235,51,73);stop-opacity:1"/><stop offset="1" style="stop-color:rgb(242,95,68);stop-opacity:1"/></linearGradient>
    </defs>
</svg>
